<?xml version="1.0" encoding="UTF-8" standalone="no"?>
<!-- Created with Inkscape (http://www.inkscape.org/) -->

<svg
   width="512"
   height="512"
   viewBox="0 0 135.46666 135.46667"
   version="1.1"
   id="svg29720"
   inkscape:version="1.1.2 (0a00cf5339, 2022-02-04)"
   sodipodi:docname="icon_project.svg"
   inkscape:export-filename="/home/paulofiles/Desktop/Plus Systems/Greenee/brand_assets/logo_green.webp"
   inkscape:export-xdpi="96"
   inkscape:export-ydpi="96"
   xmlns:inkscape="http://www.inkscape.org/namespaces/inkscape"
   xmlns:sodipodi="http://sodipodi.sourceforge.net/DTD/sodipodi-0.dtd"
   xmlns="http://www.w3.org/2000/svg"
   xmlns:svg="http://www.w3.org/2000/svg">
  <sodipodi:namedview
     id="namedview29722"
     pagecolor="#505050"
     bordercolor="#eeeeee"
     borderopacity="1"
     inkscape:pageshadow="0"
     inkscape:pageopacity="0"
     inkscape:pagecheckerboard="0"
     inkscape:document-units="px"
     showgrid="false"
     units="px"
     inkscape:zoom="0.67793911"
     inkscape:cx="237.48445"
     inkscape:cy="229.37163"
     inkscape:window-width="1920"
     inkscape:window-height="1011"
     inkscape:window-x="0"
     inkscape:window-y="0"
     inkscape:window-maximized="1"
     inkscape:current-layer="layer1" />
  <defs
     id="defs29717" />
  <g
     inkscape:label="Layer 1"
     inkscape:groupmode="layer"
     id="layer1">
    <rect
       style="opacity:1;fill:#378760;fill-opacity:1;stroke-width:2.02359;stroke-miterlimit:4;stroke-dasharray:none"
       id="rect70273"
       width="135.46666"
       height="135.46666"
       x="2.7270507e-06"
       y="2.7270507e-06" />
    <g
       aria-label="eeee"
       id="text72131"
       style="font-size:52.9167px;line-height:1.25;fill:#ffffff;stroke-width:0.264583"
       transform="matrix(1.21519,0,0,1.21519,-23.731536,-20.110683)">
      <path
         d="m 57.858392,72.685172 q 0.687917,0 1.058334,0.635 0.423333,0.635001 0.423333,1.746251 0,2.116668 -1.005417,3.280836 -1.957918,2.381251 -5.556253,4.392086 -3.545419,2.010834 -7.620005,2.010834 -5.556253,0 -8.625422,-3.016252 -3.069168,-3.016251 -3.069168,-8.255005 0,-3.651252 1.534584,-6.773337 1.534584,-3.175002 4.233336,-5.027086 2.751668,-1.852085 6.191254,-1.852085 3.069168,0 4.921253,1.852085 1.852084,1.799167 1.852084,4.921253 0,3.651252 -2.645835,6.297087 -2.592918,2.592918 -8.837089,4.127502 1.322918,2.434168 5.027087,2.434168 2.381251,0 5.397503,-1.640417 3.069168,-1.693335 5.29167,-4.392086 0.635,-0.740834 1.428751,-0.740834 z M 44.523384,65.012251 q -1.957918,0 -3.333752,2.275418 -1.322918,2.275418 -1.322918,5.503336 v 0.105834 q 3.122085,-0.740834 4.921253,-2.222502 1.799168,-1.481667 1.799168,-3.439585 0,-1.005417 -0.582084,-1.587501 -0.529167,-0.635 -1.481667,-0.635 z"
         style="font-family:Pacifico;-inkscape-font-specification:Pacifico"
         id="path95246" />
      <path
         d="m 78.654635,72.685172 q 0.687917,0 1.058334,0.635 0.423334,0.635001 0.423334,1.746251 0,2.116668 -1.005417,3.280836 -1.957918,2.381251 -5.556254,4.392086 -3.545418,2.010834 -7.620004,2.010834 -5.556254,0 -8.625422,-3.016252 -3.069169,-3.016251 -3.069169,-8.255005 0,-3.651252 1.534585,-6.773337 1.534584,-3.175002 4.233335,-5.027086 2.751669,-1.852085 6.191254,-1.852085 3.069169,0 4.921253,1.852085 1.852085,1.799167 1.852085,4.921253 0,3.651252 -2.645835,6.297087 -2.592919,2.592918 -8.837089,4.127502 1.322918,2.434168 5.027086,2.434168 2.381252,0 5.397504,-1.640417 3.069168,-1.693335 5.291669,-4.392086 0.635001,-0.740834 1.428751,-0.740834 z M 65.319627,65.012251 q -1.957918,0 -3.333752,2.275418 -1.322917,2.275418 -1.322917,5.503336 v 0.105834 q 3.122085,-0.740834 4.921253,-2.222502 1.799168,-1.481667 1.799168,-3.439585 0,-1.005417 -0.582084,-1.587501 -0.529167,-0.635 -1.481668,-0.635 z"
         style="font-family:Pacifico;-inkscape-font-specification:Pacifico"
         id="path95248" />
      <path
         d="m 99.450879,72.685172 q 0.687921,0 1.058331,0.635 0.42334,0.635001 0.42334,1.746251 0,2.116668 -1.005421,3.280836 -1.957918,2.381251 -5.556253,4.392086 -3.545419,2.010834 -7.620005,2.010834 -5.556253,0 -8.625421,-3.016252 -3.069169,-3.016251 -3.069169,-8.255005 0,-3.651252 1.534584,-6.773337 1.534585,-3.175002 4.233336,-5.027086 2.751668,-1.852085 6.191254,-1.852085 3.069168,0 4.921253,1.852085 1.852084,1.799167 1.852084,4.921253 0,3.651252 -2.645835,6.297087 -2.592918,2.592918 -8.837088,4.127502 1.322917,2.434168 5.027086,2.434168 2.381252,0 5.397503,-1.640417 3.069169,-1.693335 5.29167,-4.392086 0.635001,-0.740834 1.428751,-0.740834 z M 86.115871,65.012251 q -1.957918,0 -3.333752,2.275418 -1.322917,2.275418 -1.322917,5.503336 v 0.105834 q 3.122085,-0.740834 4.921253,-2.222502 1.799167,-1.481667 1.799167,-3.439585 0,-1.005417 -0.582083,-1.587501 -0.529167,-0.635 -1.481668,-0.635 z"
         style="font-family:Pacifico;-inkscape-font-specification:Pacifico"
         id="path95250" />
      <path
         d="m 115.59046,74.272673 q 0.68791,0 1.05833,0.635 0.42333,0.635001 0.42333,1.746251 0,1.905001 -0.89958,3.280836 -1.48167,2.275418 -3.91584,3.545418 -2.38125,1.270001 -5.715,1.270001 -5.08,0 -7.884588,-3.016252 -2.804585,-3.069168 -2.804585,-8.255005 0,-3.651252 1.534584,-6.773337 1.534584,-3.175002 4.233339,-5.027086 2.75167,-1.852085 6.19125,-1.852085 3.06917,0 4.92125,1.852085 1.85209,1.799167 1.85209,4.921253 0,3.651252 -2.64584,6.297087 -2.59292,2.592918 -8.89,4.127502 1.27,2.434168 4.28625,2.434168 2.16958,0 3.54542,-1.005417 1.42875,-1.005417 3.28083,-3.386669 0.635,-0.79375 1.42876,-0.79375 z m -8.67834,-9.260422 q -1.95792,0 -3.33376,2.275418 -1.32291,2.275418 -1.32291,5.503336 v 0.105834 q 3.12208,-0.740834 4.92125,-2.222502 1.79917,-1.481667 1.79917,-3.439585 0,-1.005417 -0.58209,-1.587501 -0.52916,-0.635 -1.48166,-0.635 z"
         style="font-family:Pacifico;-inkscape-font-specification:Pacifico"
         id="path95252" />
    </g>
  </g>
</svg>
