<?xml version="1.0" encoding="UTF-8"?>
<svg width="512" height="512" version="1.1" viewBox="0 0 135.47 135.47" xmlns="http://www.w3.org/2000/svg"><rect x="2.7271e-6" y="2.7271e-6" width="135.47" height="135.47" fill="#378760" stroke-width="2.0236"/><g transform="matrix(1.2152 0 0 1.2152 -23.732 -20.111)" fill="#fff" stroke-width=".26458" aria-label="eeee"><path d="m57.858 72.685q0.68792 0 1.0583 0.635 0.42333 0.635 0.42333 1.7463 0 2.1167-1.0054 3.2808-1.9579 2.3813-5.5563 4.3921-3.5454 2.0108-7.62 2.0108-5.5563 0-8.6254-3.0163-3.0692-3.0163-3.0692-8.255 0-3.6513 1.5346-6.7733 1.5346-3.175 4.2333-5.0271 2.7517-1.8521 6.1913-1.8521 3.0692 0 4.9213 1.8521 1.8521 1.7992 1.8521 4.9213 0 3.6513-2.6458 6.2971-2.5929 2.5929-8.8371 4.1275 1.3229 2.4342 5.0271 2.4342 2.3813 0 5.3975-1.6404 3.0692-1.6933 5.2917-4.3921 0.635-0.74083 1.4288-0.74083zm-13.335-7.6729q-1.9579 0-3.3338 2.2754-1.3229 2.2754-1.3229 5.5033v0.10583q3.1221-0.74083 4.9213-2.2225 1.7992-1.4817 1.7992-3.4396 0-1.0054-0.58208-1.5875-0.52917-0.635-1.4817-0.635z"/><path d="m78.655 72.685q0.68792 0 1.0583 0.635 0.42333 0.635 0.42333 1.7463 0 2.1167-1.0054 3.2808-1.9579 2.3813-5.5563 4.3921-3.5454 2.0108-7.62 2.0108-5.5563 0-8.6254-3.0163-3.0692-3.0163-3.0692-8.255 0-3.6513 1.5346-6.7733 1.5346-3.175 4.2333-5.0271 2.7517-1.8521 6.1913-1.8521 3.0692 0 4.9213 1.8521 1.8521 1.7992 1.8521 4.9213 0 3.6513-2.6458 6.2971-2.5929 2.5929-8.8371 4.1275 1.3229 2.4342 5.0271 2.4342 2.3813 0 5.3975-1.6404 3.0692-1.6933 5.2917-4.3921 0.635-0.74083 1.4288-0.74083zm-13.335-7.6729q-1.9579 0-3.3338 2.2754-1.3229 2.2754-1.3229 5.5033v0.10583q3.1221-0.74083 4.9213-2.2225 1.7992-1.4817 1.7992-3.4396 0-1.0054-0.58208-1.5875-0.52917-0.635-1.4817-0.635z"/><path d="m99.451 72.685q0.68792 0 1.0583 0.635 0.42334 0.635 0.42334 1.7463 0 2.1167-1.0054 3.2808-1.9579 2.3813-5.5563 4.3921-3.5454 2.0108-7.62 2.0108-5.5563 0-8.6254-3.0163-3.0692-3.0163-3.0692-8.255 0-3.6513 1.5346-6.7733 1.5346-3.175 4.2333-5.0271 2.7517-1.8521 6.1913-1.8521 3.0692 0 4.9213 1.8521 1.8521 1.7992 1.8521 4.9213 0 3.6513-2.6458 6.2971-2.5929 2.5929-8.8371 4.1275 1.3229 2.4342 5.0271 2.4342 2.3813 0 5.3975-1.6404 3.0692-1.6933 5.2917-4.3921 0.635-0.74083 1.4288-0.74083zm-13.335-7.6729q-1.9579 0-3.3338 2.2754-1.3229 2.2754-1.3229 5.5033v0.10583q3.1221-0.74083 4.9213-2.2225 1.7992-1.4817 1.7992-3.4396 0-1.0054-0.58208-1.5875-0.52917-0.635-1.4817-0.635z"/><path d="m115.59 74.273q0.68791 0 1.0583 0.635 0.42333 0.635 0.42333 1.7463 0 1.905-0.89958 3.2808-1.4817 2.2754-3.9158 3.5454-2.3812 1.27-5.715 1.27-5.08 0-7.8846-3.0163-2.8046-3.0692-2.8046-8.255 0-3.6513 1.5346-6.7733 1.5346-3.175 4.2333-5.0271 2.7517-1.8521 6.1912-1.8521 3.0692 0 4.9212 1.8521 1.8521 1.7992 1.8521 4.9213 0 3.6513-2.6458 6.2971-2.5929 2.5929-8.89 4.1275 1.27 2.4342 4.2862 2.4342 2.1696 0 3.5454-1.0054 1.4288-1.0054 3.2808-3.3867 0.635-0.79375 1.4288-0.79375zm-8.6783-9.2604q-1.9579 0-3.3338 2.2754-1.3229 2.2754-1.3229 5.5033v0.10583q3.1221-0.74083 4.9212-2.2225 1.7992-1.4817 1.7992-3.4396 0-1.0054-0.58209-1.5875-0.52916-0.635-1.4817-0.635z"/></g></svg>
