<?xml version="1.0" encoding="UTF-8"?>
<svg width="512" height="156" version="1.1" viewBox="0 0 135.47 41.275" xmlns="http://www.w3.org/2000/svg"><g transform="matrix(.63283 0 0 .63283 1.877 -100.65)" fill="#fff" stroke-width=".26458" aria-label="greenee"><path d="m36.686 176.52q0.91722 0 1.4111 0.91723 0.56444 0.84666 0.56444 2.1872 0 1.6228-0.49389 2.54-0.49389 0.91723-1.5522 1.6228-6.0678 4.0922-8.89 6.0678l-4.5156 3.0339q-2.6811 14.605-7.0556 22.931-4.3039 8.3961-11.007 8.3961-3.5983 0-5.8561-2.2578-2.2578-2.1872-2.2578-5.7856 0-5.0094 3.9511-10.795 3.9511-5.715 14.817-14.111l0.42333-2.7517q-1.1994 1.905-3.175 2.9633-1.905 0.98778-3.81 0.98778-4.3744 0-6.985-3.175-2.6106-3.175-2.6106-8.3256 0-5.6444 2.6106-10.654 2.6106-5.08 6.9144-8.1139 4.3744-3.1044 9.2428-3.1044 1.5522 0 2.0461 0.635 0.56444 0.56445 0.91722 2.1167 1.3406-0.28222 3.1044-0.28222t2.4694 0.56444q0.77611 0.49389 0.77611 2.0461 0 0.84667-0.07056 1.3406-0.28222 2.1872-1.7639 11.077-0.28222 1.6933-0.635 3.7394-0.28222 1.9756-0.635 4.2333 5.4328-4.2333 10.442-7.4789 0.91722-0.56445 1.6228-0.56445zm-24.906 8.8194q1.6228 0 3.1044-1.9756 1.4817-1.9756 2.1167-5.6444l2.2578-12.065q-2.8928 0.0706-5.3622 2.2578-2.4694 2.1167-3.9511 5.6444-1.4817 3.5278-1.4817 7.4789 0 2.1872 0.84667 3.2456 0.91722 1.0583 2.4694 1.0583zm-5.8561 32.032q1.7639 0 3.9511-4.2333 2.2578-4.2333 4.3039-13.476-5.4328 4.6567-7.8317 8.3961t-2.3989 6.5617q0 1.1994 0.42333 1.9756 0.49389 0.77611 1.5522 0.77611z"/><path d="m38.591 192.47q-2.6811 0-3.81-2.8222-1.0583-2.8222-1.0583-9.0311 0-9.1722 2.6106-17.427 0.635-2.0461 2.0461-2.9633 1.4817-0.98778 4.0922-0.98778 1.4111 0 1.9756 0.35278 0.56444 0.35278 0.56444 1.3406 0 1.1289-1.0583 5.08-0.70556 2.8222-1.1289 4.9389-0.42333 2.1167-0.70556 5.2211 2.3283-6.0678 5.2211-9.8778t5.6444-5.4328q2.8222-1.6228 5.1506-1.6228 4.5861 0 4.5861 4.5861 0 0.91722-0.635 4.445-0.56444 2.8222-0.56444 3.5278 0 2.4694 1.7639 2.4694 1.9756 0 5.08-3.1044 0.91722-0.91722 1.905-0.91722 0.91722 0 1.4111 0.84666 0.56444 0.77611 0.56444 2.1167 0 2.6106-1.4111 4.0922-1.9756 2.0461-4.6567 3.5278-2.6106 1.4111-5.5739 1.4111-3.7394 0-5.715-1.905-1.905-1.905-1.905-5.1506 0-1.0583 0.21167-2.1167 0.14111-1.4111 0.14111-1.905 0-1.1289-0.77611-1.1289-1.0583 0-2.8222 2.3989-1.6933 2.3283-3.3867 6.2089-1.6933 3.8806-2.7517 8.1844-0.77611 3.3161-1.8344 4.5156-0.98778 1.1289-3.175 1.1289z"/><path d="m97.152 176.38q0.91722 0 1.4111 0.84667 0.56444 0.84667 0.56444 2.3283 0 2.8222-1.3406 4.3744-2.6106 3.175-7.4083 5.8561-4.7272 2.6811-10.16 2.6811-7.4083 0-11.501-4.0217t-4.0922-11.007q0-4.8683 2.0461-9.0311 2.0461-4.2333 5.6444-6.7028 3.6689-2.4694 8.255-2.4694 4.0922 0 6.5617 2.4694 2.4694 2.3989 2.4694 6.5617 0 4.8683-3.5278 8.3961-3.4572 3.4572-11.783 5.5033 1.7639 3.2456 6.7028 3.2456 3.175 0 7.1967-2.1872 4.0922-2.2578 7.0556-5.8561 0.84667-0.98778 1.905-0.98778zm-17.78-10.231q-2.6106 0-4.445 3.0339-1.7639 3.0339-1.7639 7.3378v0.14112q4.1628-0.98778 6.5617-2.9633 2.3989-1.9756 2.3989-4.5861 0-1.3406-0.77611-2.1167-0.70556-0.84667-1.9756-0.84667z"/><path d="m124.88 176.38q0.91723 0 1.4111 0.84667 0.56444 0.84667 0.56444 2.3283 0 2.8222-1.3406 4.3744-2.6106 3.175-7.4083 5.8561-4.7272 2.6811-10.16 2.6811-7.4083 0-11.501-4.0217-4.0922-4.0217-4.0922-11.007 0-4.8683 2.0461-9.0311 2.0461-4.2333 5.6444-6.7028 3.6689-2.4694 8.255-2.4694 4.0922 0 6.5617 2.4694 2.4694 2.3989 2.4694 6.5617 0 4.8683-3.5278 8.3961-3.4572 3.4572-11.783 5.5033 1.7639 3.2456 6.7028 3.2456 3.175 0 7.1967-2.1872 4.0922-2.2578 7.0556-5.8561 0.84667-0.98778 1.905-0.98778zm-17.78-10.231q-2.6106 0-4.445 3.0339-1.7639 3.0339-1.7639 7.3378v0.14112q4.1628-0.98778 6.5617-2.9633t2.3989-4.5861q0-1.3406-0.77611-2.1167-0.70556-0.84667-1.9756-0.84667z"/><path d="m126.15 192.47q-2.6811 0-3.81-2.8222-1.0583-2.8222-1.0583-9.0311 0-9.1722 2.6106-17.427 0.635-2.0461 2.0461-2.9633 1.4817-0.98778 4.0922-0.98778 1.4111 0 1.9756 0.35278 0.56445 0.35278 0.56445 1.3406 0 1.1289-1.0583 5.08-0.70555 2.8222-1.1289 4.9389-0.42333 2.1167-0.70555 5.2211 2.3283-6.0678 5.2211-9.8778t5.6444-5.4328q2.8222-1.6228 5.1506-1.6228 4.5861 0 4.5861 4.5861 0 2.7517-1.5522 9.9483-1.3406 6.1383-1.3406 8.1139 0 2.8222 2.0461 2.8222 1.4111 0 3.3161-1.6933 1.9756-1.7639 5.2211-5.6444 0.84666-0.98778 1.905-0.98778 0.91722 0 1.4111 0.84667 0.56444 0.84667 0.56444 2.3283 0 2.8222-1.3406 4.3744-3.0339 3.7394-6.5617 6.1383-3.4572 2.3989-7.9022 2.3989-3.5983 0-5.4328-2.0461-1.8344-2.1167-1.8344-6.0678 0-1.9756 0.98778-7.0556 0.91722-4.445 0.91722-6.1383 0-1.1289-0.77611-1.1289-0.91722 0-2.6106 2.3989-1.6228 2.3283-3.3867 6.2089-1.6933 3.8806-2.7517 8.1844-0.77612 3.3161-1.8344 4.5156-0.98778 1.1289-3.175 1.1289z"/><path d="m187.6 176.38q0.91722 0 1.4111 0.84667 0.56445 0.84667 0.56445 2.3283 0 2.8222-1.3406 4.3744-2.6106 3.175-7.4083 5.8561-4.7272 2.6811-10.16 2.6811-7.4083 0-11.501-4.0217-4.0922-4.0217-4.0922-11.007 0-4.8683 2.0461-9.0311 2.0461-4.2333 5.6444-6.7028 3.6689-2.4694 8.255-2.4694 4.0922 0 6.5617 2.4694 2.4694 2.3989 2.4694 6.5617 0 4.8683-3.5278 8.3961-3.4572 3.4572-11.783 5.5033 1.7639 3.2456 6.7028 3.2456 3.175 0 7.1967-2.1872 4.0922-2.2578 7.0556-5.8561 0.84667-0.98778 1.905-0.98778zm-17.78-10.231q-2.6106 0-4.445 3.0339-1.7639 3.0339-1.7639 7.3378v0.14112q4.1628-0.98778 6.5617-2.9633t2.3989-4.5861q0-1.3406-0.77611-2.1167-0.70556-0.84667-1.9756-0.84667z"/><path d="m209.12 178.5q0.91722 0 1.4111 0.84667 0.56445 0.84667 0.56445 2.3283 0 2.54-1.1994 4.3744-1.9756 3.0339-5.2211 4.7272-3.175 1.6933-7.62 1.6933-6.7733 0-10.513-4.0217-3.7394-4.0922-3.7394-11.007 0-4.8683 2.0461-9.0311 2.0461-4.2333 5.6444-6.7028 3.6689-2.4694 8.255-2.4694 4.0922 0 6.5617 2.4694 2.4694 2.3989 2.4694 6.5617 0 4.8683-3.5278 8.3961-3.4572 3.4572-11.853 5.5033 1.6933 3.2456 5.715 3.2456 2.8928 0 4.7272-1.3406 1.905-1.3406 4.3744-4.5156 0.84667-1.0583 1.905-1.0583zm-11.571-12.347q-2.6106 0-4.445 3.0339-1.7639 3.0339-1.7639 7.3378v0.14112q4.1628-0.98778 6.5617-2.9633t2.3989-4.5861q0-1.3406-0.77611-2.1167-0.70556-0.84667-1.9756-0.84667z"/></g></svg>
