<?xml version="1.0" encoding="UTF-8" standalone="no"?>
<!-- Created with Inkscape (http://www.inkscape.org/) -->

<svg
   width="512"
   height="232"
   viewBox="0 0 135.46666 61.383335"
   version="1.1"
   id="svg29720"
   inkscape:version="1.1.2 (0a00cf5339, 2022-02-04)"
   sodipodi:docname="logo_project.svg"
   inkscape:export-filename="/home/paulofiles/Desktop/Plus Systems/Greenee/brand_assets/logo_green.webp"
   inkscape:export-xdpi="96"
   inkscape:export-ydpi="96"
   xmlns:inkscape="http://www.inkscape.org/namespaces/inkscape"
   xmlns:sodipodi="http://sodipodi.sourceforge.net/DTD/sodipodi-0.dtd"
   xmlns="http://www.w3.org/2000/svg"
   xmlns:svg="http://www.w3.org/2000/svg">
  <sodipodi:namedview
     id="namedview29722"
     pagecolor="#505050"
     bordercolor="#eeeeee"
     borderopacity="1"
     inkscape:pageshadow="0"
     inkscape:pageopacity="0"
     inkscape:pagecheckerboard="0"
     inkscape:document-units="px"
     showgrid="false"
     units="px"
     inkscape:zoom="1.3558782"
     inkscape:cx="207.98328"
     inkscape:cy="167.78793"
     inkscape:window-width="1920"
     inkscape:window-height="1011"
     inkscape:window-x="0"
     inkscape:window-y="0"
     inkscape:window-maximized="1"
     inkscape:current-layer="layer1" />
  <defs
     id="defs29717" />
  <g
     inkscape:label="Layer 1"
     inkscape:groupmode="layer"
     id="layer1">
    <g
       aria-label="greenee"
       id="text34701"
       style="font-size:70.5556px;line-height:1.25;fill:#378760;fill-opacity:1;stroke-width:0.264583"
       transform="matrix(0.63282879,0,0,0.63282879,1.8769953,-80.5705)">
      <path
         d="m 36.686208,176.52055 q 0.917223,0 1.411112,0.91723 0.564445,0.84666 0.564445,2.18722 0,1.62278 -0.493889,2.54 -0.493889,0.91723 -1.552223,1.62278 -6.067782,4.09223 -8.890006,6.06778 l -4.515559,3.03389 q -2.681113,14.60501 -7.05556,22.93057 -4.303892,8.39612 -11.0066743,8.39612 -3.5983358,0 -5.85611508,-2.25778 -2.25777932,-2.18722 -2.25777932,-5.78556 0,-5.00944 3.95111379,-10.795 Q 4.9361869,199.66279 15.80175,191.26668 l 0.423333,-2.75167 q -1.199445,1.905 -3.175002,2.96333 -1.905001,0.98778 -3.8100024,0.98778 -4.3744473,0 -6.9850047,-3.175 -2.61055727,-3.175 -2.61055727,-8.32556 0,-5.64445 2.61055727,-10.6539 2.6105574,-5.08 6.9144491,-8.11389 4.374447,-3.10445 9.242784,-3.10445 1.552223,0 2.046113,0.635 0.564444,0.56445 0.917222,2.11667 1.340557,-0.28222 3.104447,-0.28222 1.76389,0 2.469446,0.56444 0.776112,0.49389 0.776112,2.04611 0,0.84667 -0.07056,1.34056 -0.282222,2.18722 -1.76389,11.07723 -0.282222,1.69333 -0.635,3.73945 -0.282223,1.97555 -0.635001,4.23333 5.432782,-4.23333 10.442229,-7.47889 0.917223,-0.56445 1.622779,-0.56445 z M 11.78008,185.34 q 1.622779,0 3.104447,-1.97555 1.481668,-1.97556 2.116668,-5.64445 l 2.257779,-12.06501 q -2.892779,0.0706 -5.362226,2.25778 -2.469446,2.11667 -3.9511133,5.64445 -1.4816677,3.52778 -1.4816677,7.47889 0,2.18723 0.8466672,3.24556 Q 10.227857,185.34 11.78008,185.34 Z m -5.8561147,32.03225 q 1.7638901,0 3.9511138,-4.23334 2.2577789,-4.23333 4.3038919,-13.47612 -5.4327816,4.65667 -7.8316721,8.39612 -2.3988905,3.73945 -2.3988905,6.56167 0,1.19944 0.4233336,1.97556 0.4938893,0.77611 1.5522233,0.77611 z"
         style="font-family:Pacifico;-inkscape-font-specification:Pacifico;fill:#378760;fill-opacity:1"
         id="path40479" />
      <path
         d="m 38.59097,192.46612 q -2.681113,0 -3.810002,-2.82222 -1.058334,-2.82223 -1.058334,-9.03112 0,-9.17223 2.610557,-17.42723 0.635,-2.04612 2.046112,-2.96334 1.481668,-0.98778 4.092225,-0.98778 1.411113,0 1.975557,0.35278 0.564445,0.35278 0.564445,1.34056 0,1.12889 -1.058334,5.08 -0.705556,2.82222 -1.12889,4.93889 -0.423333,2.11667 -0.705556,5.22112 2.328335,-6.06779 5.221115,-9.87779 2.89278,-3.81 5.644448,-5.43278 2.822224,-1.62278 5.150559,-1.62278 4.586115,0 4.586115,4.58612 0,0.91722 -0.635001,4.445 -0.564445,2.82222 -0.564445,3.52778 0,2.46944 1.76389,2.46944 1.975557,0 5.080004,-3.10444 0.917223,-0.91722 1.905001,-0.91722 0.917223,0 1.411112,0.84666 0.564445,0.77611 0.564445,2.11667 0,2.61056 -1.411112,4.09223 -1.975557,2.04611 -4.65667,3.52778 -2.610557,1.41111 -5.573893,1.41111 -3.739447,0 -5.715003,-1.905 -1.905002,-1.905 -1.905002,-5.15056 0,-1.05834 0.211667,-2.11667 0.141111,-1.41111 0.141111,-1.905 0,-1.12889 -0.776111,-1.12889 -1.058334,0 -2.822224,2.39889 -1.693335,2.32833 -3.386669,6.20889 -1.693335,3.88056 -2.751669,8.18445 -0.776112,3.31612 -1.834446,4.51556 -0.987778,1.12889 -3.175002,1.12889 z"
         style="font-family:Pacifico;-inkscape-font-specification:Pacifico;fill:#378760;fill-opacity:1"
         id="path40481" />
      <path
         d="m 97.152112,176.37944 q 0.917223,0 1.411112,0.84667 0.564445,0.84667 0.564445,2.32833 0,2.82223 -1.340556,4.37445 -2.610558,3.175 -7.408339,5.85612 -4.727225,2.68111 -10.160006,2.68111 -7.408339,0 -11.500564,-4.02167 -4.092225,-4.02167 -4.092225,-11.00667 0,-4.86834 2.046113,-9.03112 2.046112,-4.23334 5.644448,-6.70278 3.668891,-2.46945 8.255006,-2.46945 4.092225,0 6.561671,2.46945 2.469446,2.39889 2.469446,6.56167 0,4.86834 -3.52778,8.39612 -3.457225,3.45722 -11.782786,5.50333 1.76389,3.24556 6.702782,3.24556 3.175002,0 7.196672,-2.18722 4.092225,-2.25778 7.05556,-5.85612 0.846667,-0.98778 1.905001,-0.98778 z M 79.3721,166.14888 q -2.610557,0 -4.445003,3.03389 -1.76389,3.03389 -1.76389,7.33778 v 0.14112 q 4.162781,-0.98778 6.561671,-2.96334 2.398891,-1.97556 2.398891,-4.58611 0,-1.34056 -0.776112,-2.11667 -0.705556,-0.84667 -1.975557,-0.84667 z"
         style="font-family:Pacifico;-inkscape-font-specification:Pacifico;fill:#378760;fill-opacity:1"
         id="path40483" />
      <path
         d="m 124.88044,176.37944 q 0.91723,0 1.41112,0.84667 0.56444,0.84667 0.56444,2.32833 0,2.82223 -1.34055,4.37445 -2.61056,3.175 -7.40834,5.85612 -4.72723,2.68111 -10.16001,2.68111 -7.40834,0 -11.500563,-4.02167 -4.092225,-4.02167 -4.092225,-11.00667 0,-4.86834 2.046112,-9.03112 2.046113,-4.23334 5.644446,-6.70278 3.66889,-2.46945 8.25501,-2.46945 4.09222,0 6.56167,2.46945 2.46945,2.39889 2.46945,6.56167 0,4.86834 -3.52778,8.39612 -3.45723,3.45722 -11.78279,5.50333 1.76389,3.24556 6.70278,3.24556 3.175,0 7.19667,-2.18722 4.09223,-2.25778 7.05556,-5.85612 0.84667,-0.98778 1.905,-0.98778 z m -17.78001,-10.23056 q -2.61055,0 -4.445,3.03389 -1.76389,3.03389 -1.76389,7.33778 v 0.14112 q 4.16278,-0.98778 6.56167,-2.96334 2.39889,-1.97556 2.39889,-4.58611 0,-1.34056 -0.77611,-2.11667 -0.70556,-0.84667 -1.97556,-0.84667 z"
         style="font-family:Pacifico;-inkscape-font-specification:Pacifico;fill:#378760;fill-opacity:1"
         id="path40485" />
      <path
         d="m 126.15042,192.46612 q -2.68111,0 -3.81,-2.82222 -1.05834,-2.82223 -1.05834,-9.03112 0,-9.17223 2.61056,-17.42723 0.635,-2.04612 2.04611,-2.96334 1.48167,-0.98778 4.09223,-0.98778 1.41111,0 1.97555,0.35278 0.56445,0.35278 0.56445,1.34056 0,1.12889 -1.05834,5.08 -0.70555,2.82222 -1.12889,4.93889 -0.42333,2.11667 -0.70555,5.22112 2.32833,-6.06779 5.22111,-9.87779 2.89278,-3.81 5.64445,-5.43278 2.82223,-1.62278 5.15056,-1.62278 4.58611,0 4.58611,4.58612 0,2.75166 -1.55222,9.94834 -1.34055,6.13833 -1.34055,8.11389 0,2.82222 2.04611,2.82222 1.41111,0 3.31611,-1.69333 1.97556,-1.76389 5.22112,-5.64445 0.84666,-0.98778 1.905,-0.98778 0.91722,0 1.41111,0.84667 0.56444,0.84667 0.56444,2.32833 0,2.82223 -1.34055,4.37445 -3.03389,3.73945 -6.56167,6.13834 -3.45723,2.39889 -7.90223,2.39889 -3.59834,0 -5.43278,-2.04611 -1.83445,-2.11667 -1.83445,-6.06778 0,-1.97556 0.98778,-7.05556 0.91722,-4.44501 0.91722,-6.13834 0,-1.12889 -0.77611,-1.12889 -0.91722,0 -2.61056,2.39889 -1.62278,2.32833 -3.38667,6.20889 -1.69333,3.88056 -2.75166,8.18445 -0.77612,3.31612 -1.83445,4.51556 -0.98778,1.12889 -3.175,1.12889 z"
         style="font-family:Pacifico;-inkscape-font-specification:Pacifico;fill:#378760;fill-opacity:1"
         id="path40487" />
      <path
         d="m 187.60423,176.37944 q 0.91722,0 1.41111,0.84667 0.56445,0.84667 0.56445,2.32833 0,2.82223 -1.34056,4.37445 -2.61056,3.175 -7.40834,5.85612 -4.72722,2.68111 -10.16,2.68111 -7.40834,0 -11.50057,-4.02167 -4.09222,-4.02167 -4.09222,-11.00667 0,-4.86834 2.04611,-9.03112 2.04611,-4.23334 5.64445,-6.70278 3.66889,-2.46945 8.255,-2.46945 4.09223,0 6.56167,2.46945 2.46945,2.39889 2.46945,6.56167 0,4.86834 -3.52778,8.39612 -3.45722,3.45722 -11.78279,5.50333 1.76389,3.24556 6.70279,3.24556 3.175,0 7.19667,-2.18722 4.09222,-2.25778 7.05556,-5.85612 0.84667,-0.98778 1.905,-0.98778 z m -17.78001,-10.23056 q -2.61056,0 -4.445,3.03389 -1.76389,3.03389 -1.76389,7.33778 v 0.14112 q 4.16278,-0.98778 6.56167,-2.96334 2.39889,-1.97556 2.39889,-4.58611 0,-1.34056 -0.77611,-2.11667 -0.70556,-0.84667 -1.97556,-0.84667 z"
         style="font-family:Pacifico;-inkscape-font-specification:Pacifico;fill:#378760;fill-opacity:1"
         id="path40489" />
      <path
         d="m 209.12367,178.49611 q 0.91722,0 1.41111,0.84667 0.56445,0.84667 0.56445,2.32833 0,2.54 -1.19945,4.37445 -1.97556,3.03389 -5.22111,4.72723 -3.17501,1.69333 -7.62001,1.69333 -6.77334,0 -10.51278,-4.02167 -3.73945,-4.09222 -3.73945,-11.00667 0,-4.86834 2.04611,-9.03112 2.04611,-4.23334 5.64445,-6.70278 3.66889,-2.46945 8.25501,-2.46945 4.09222,0 6.56167,2.46945 2.46944,2.39889 2.46944,6.56167 0,4.86834 -3.52778,8.39612 -3.45722,3.45722 -11.85334,5.50333 1.69334,3.24556 5.71501,3.24556 2.89278,0 4.72722,-1.34056 1.905,-1.34055 4.37445,-4.51556 0.84667,-1.05833 1.905,-1.05833 z m -11.57112,-12.34723 q -2.61056,0 -4.445,3.03389 -1.76389,3.03389 -1.76389,7.33778 v 0.14112 q 4.16278,-0.98778 6.56167,-2.96334 2.39889,-1.97556 2.39889,-4.58611 0,-1.34056 -0.77611,-2.11667 -0.70556,-0.84667 -1.97556,-0.84667 z"
         style="font-family:Pacifico;-inkscape-font-specification:Pacifico;fill:#378760;fill-opacity:1"
         id="path40491" />
    </g>
  </g>
</svg>
